<svg width="256" height="256" viewBox="0 0 256 256" fill="none" xmlns="http://www.w3.org/2000/svg">
  <rect width="256" height="256" rx="64" fill="#F8FAFC"/>
  <g transform="translate(30 38)">
    <path
      d="M38 83.5C38 74.9 44.9 68 53.5 68H73V117H53.5C44.9 117 38 110.1 38 101.5V83.5Z"
      fill="url(#bodyGradient)"
    />
    <path
      d="M73 76.5C73 73.2 75.7 70.5 79 70.5H86.5C88.2 70.5 89.8 71.2 91 72.5L123 106.5C124.9 108.5 125.4 111.5 124.3 114L119 126.5C117.8 129.3 115.1 131 112.1 131H79C75.7 131 73 128.3 73 125V76.5Z"
      fill="#5B35C9"
    />
    <path
      d="M63 66.5L155.8 40.5C162.2 38.7 168.5 43.5 168.5 50.1V135.4C168.5 142.3 161.7 147.2 155.1 145L63 114.5V66.5Z"
      fill="url(#hornGradient)"
    />
    <path
      d="M63 78.5L150.5 54.5C154.7 53.3 158.9 56.5 158.9 60.9V125.3C158.9 129.9 154.4 133.1 150 131.6L63 101.9V78.5Z"
      fill="url(#hornHighlight)"
      opacity="0.95"
    />
    <rect x="47.5" y="124" width="25" height="39" rx="12.5" transform="rotate(-18 47.5 124)" fill="url(#handleGradient)"/>
    <path d="M177 63L190 52" stroke="#3C4DCC" stroke-width="8" stroke-linecap="round"/>
    <path d="M183 88H200" stroke="#3C4DCC" stroke-width="8" stroke-linecap="round"/>
    <path d="M177 112L190 123" stroke="#3C4DCC" stroke-width="8" stroke-linecap="round"/>
    <circle cx="62" cy="92" r="6.5" fill="#7BC4FF" opacity="0.85"/>
  </g>
  <defs>
    <linearGradient id="bodyGradient" x1="38" y1="68" x2="86" y2="117" gradientUnits="userSpaceOnUse">
      <stop stop-color="#6FB8FF"/>
      <stop offset="1" stop-color="#2B74F0"/>
    </linearGradient>
    <linearGradient id="hornGradient" x1="63" y1="48" x2="170" y2="145" gradientUnits="userSpaceOnUse">
      <stop stop-color="#94D3FF"/>
      <stop offset="0.42" stop-color="#3D8BFF"/>
      <stop offset="1" stop-color="#2D57D9"/>
    </linearGradient>
    <linearGradient id="hornHighlight" x1="74" y1="56" x2="148" y2="126" gradientUnits="userSpaceOnUse">
      <stop stop-color="#D7F0FF"/>
      <stop offset="1" stop-color="#5A9FFF"/>
    </linearGradient>
    <linearGradient id="handleGradient" x1="47.5" y1="124" x2="72.5" y2="163" gradientUnits="userSpaceOnUse">
      <stop stop-color="#7A54E8"/>
      <stop offset="1" stop-color="#5724B8"/>
    </linearGradient>
  </defs>
</svg>
