<svg width="256" height="256" viewBox="0 0 256 256" fill="none" xmlns="http://www.w3.org/2000/svg">
  <rect width="256" height="256" rx="64" fill="#0F172A"/>
  <g transform="translate(34 42)" fill="#FFFFFF">
    <path d="M27 76C27 68.82 32.82 63 40 63H57V111H40C32.82 111 27 105.18 27 98V76Z"/>
    <path d="M57 70L150 43.5C155.92 41.81 161.8 46.26 161.8 52.42V121.8C161.8 128.17 155.57 132.64 149.53 130.59L57 99V70Z"/>
    <path d="M56 109L78.5 104L93 155.5C94.56 161.03 91.5 166.77 85.98 168.32L83.09 169.13C77.56 170.68 71.83 167.62 70.27 162.1L56 109Z"/>
    <path d="M170 67.5L183.5 57" stroke="#FFFFFF" stroke-width="8" stroke-linecap="round"/>
    <path d="M176.5 87.5H194" stroke="#FFFFFF" stroke-width="8" stroke-linecap="round"/>
    <path d="M170 108L183.5 118.5" stroke="#FFFFFF" stroke-width="8" stroke-linecap="round"/>
  </g>
</svg>
